<svg xmlns="http://www.w3.org/2000/svg" width="920" height="680" viewBox="0 0 920 680" role="img" aria-labelledby="title desc">
  <title id="title">Panel de progreso Y2FIT</title>
  <desc id="desc">Interfaz de progreso con rachas, niveles y entrenos.</desc>
  <rect width="920" height="680" rx="28" fill="#0f1213"/>
  <path d="M0 120h920M0 360h920M190 0v680M548 0v680" stroke="#c8f82e" stroke-opacity=".08"/>
  <text x="52" y="92" font-family="Arial Black, Arial, sans-serif" font-size="42" font-weight="900" fill="#f4f7ef">SEMANA 3</text>
  <text x="52" y="128" font-family="Arial, sans-serif" font-size="16" fill="#8c9487" letter-spacing="3">SIGUE LA RACHA</text>
  <circle cx="720" cy="158" r="92" fill="none" stroke="#262d24" stroke-width="24"/>
  <path d="M720 66a92 92 0 1 1-82 133" fill="none" stroke="#c8f82e" stroke-width="24" stroke-linecap="round"/>
  <text x="720" y="150" font-family="Arial Black, Arial, sans-serif" font-size="46" font-weight="900" text-anchor="middle" fill="#f4f7ef">68%</text>
  <text x="720" y="184" font-family="Arial, sans-serif" font-size="14" text-anchor="middle" fill="#8c9487">temporada</text>
  <g transform="translate(52 210)">
    <rect width="440" height="96" rx="18" fill="#171b1d" stroke="#ffffff" stroke-opacity=".08"/>
    <rect x="24" y="24" width="48" height="48" rx="14" fill="#c8f82e"/>
    <text x="96" y="44" font-family="Arial Black, Arial, sans-serif" font-size="22" font-weight="900" fill="#f4f7ef">Fuerza base</text>
    <text x="96" y="70" font-family="Arial, sans-serif" font-size="15" fill="#8c9487">Push, pull y piernas sin improvisar</text>
  </g>
  <g transform="translate(52 330)">
    <rect width="440" height="96" rx="18" fill="#171b1d" stroke="#ffffff" stroke-opacity=".08"/>
    <rect x="24" y="24" width="48" height="48" rx="14" fill="#f4f7ef"/>
    <text x="96" y="44" font-family="Arial Black, Arial, sans-serif" font-size="22" font-weight="900" fill="#f4f7ef">Racha activa</text>
    <text x="96" y="70" font-family="Arial, sans-serif" font-size="15" fill="#8c9487">4 entrenos completados esta semana</text>
  </g>
  <g transform="translate(52 450)">
    <rect width="440" height="96" rx="18" fill="#171b1d" stroke="#ffffff" stroke-opacity=".08"/>
    <rect x="24" y="24" width="48" height="48" rx="14" fill="#c8f82e"/>
    <text x="96" y="44" font-family="Arial Black, Arial, sans-serif" font-size="22" font-weight="900" fill="#f4f7ef">Proximo reto</text>
    <text x="96" y="70" font-family="Arial, sans-serif" font-size="15" fill="#8c9487">Sube carga en press y desbloquea nivel</text>
  </g>
  <g transform="translate(588 312)">
    <rect width="260" height="260" rx="28" fill="#c8f82e"/>
    <text x="34" y="70" font-family="Arial Black, Arial, sans-serif" font-size="64" font-weight="900" fill="#070809">LVL</text>
    <text x="34" y="154" font-family="Arial Black, Arial, sans-serif" font-size="92" font-weight="900" fill="#070809">07</text>
    <text x="34" y="204" font-family="Arial, sans-serif" font-size="18" font-weight="700" fill="#070809">Modo gym desbloqueado</text>
  </g>
</svg>
